<svg version="1.1" xmlns="http://www.w3.org/2000/svg" xmlns:xlink="http://www.w3.org/1999/xlink" width="301.76649" height="302.00054" viewBox="0,0,301.76649,302.00054"><g transform="translate(-89.24919,-29.04999)"><g data-paper-data="{&quot;isPaintingLayer&quot;:true}" fill="#ffffff" fill-rule="nonzero" stroke="none" stroke-width="1" stroke-linecap="butt" stroke-linejoin="miter" stroke-miterlimit="10" stroke-dasharray="" stroke-dashoffset="0" style="mix-blend-mode: normal"><path d="M209.14999,300.34999c-110.9,-28.6 -120,-31 -119.9,-31.5c0.1,-0.6 61.5,-239.7 61.6,-239.8c0,0 54,13.8 119.9,30.8c65.9,17 120,30.8 120.1,30.8c0.2,0 0.2,0.4 0.1,0.9c-0.2,1.5 -61.5,239.3 -61.7,239.5c0,0.1 -54.1,-13.7 -120.1,-30.7zM269.54999,163.24999c0.1,-0.5 -2.3,-1.2 -23.2,-6.6c-12.8,-3.3 -23.5,-5.9 -23.6,-5.8c-0.3,0.3 -12.1,46.6 -12,46.7c0.2,0.2 46.7,12.2 46.8,12.1c0,-0.1 2.7,-10.4 6,-23c3.2,-12.6 5.9,-23.1 6,-23.4z"/></g></g></svg>